<?xml version="1.0" encoding="UTF-8"?>
<svg xmlns="http://www.w3.org/2000/svg" viewBox="0 0 675.85 289.76">
  <g id="FILL">
    <g>
      <path d="m25.03,21.34v20.16h32.52v18.74H25.03v21.87h36.78v19.45H.75V1.89h61.06v19.45H25.03Z" style="fill: #f15a24;"/>
      <path d="m149.56,49.81c-2.65,4.78-6.72,8.64-12.21,11.57-5.49,2.93-12.31,4.4-20.45,4.4h-15.05v35.78h-24.28V1.89h39.33c7.95,0,14.67,1.37,20.16,4.12,5.49,2.75,9.61,6.53,12.35,11.36,2.74,4.83,4.12,10.37,4.12,16.61,0,5.78-1.33,11.05-3.98,15.83Zm-24.14-6.6c2.27-2.18,3.41-5.25,3.41-9.23s-1.14-7.05-3.41-9.23c-2.27-2.18-5.73-3.27-10.37-3.27h-13.21v24.99h13.21c4.64,0,8.09-1.09,10.37-3.27Z" style="fill: #f15a24;"/>
      <path d="m190.46,1.89v99.68h-24.28V1.89h24.28Z" style="fill: #f15a24;"/>
      <path d="m210.34,25.25c4.26-7.71,10.2-13.72,17.82-18.03,7.62-4.31,16.26-6.46,25.91-6.46,11.83,0,21.96,3.12,30.39,9.37,8.42,6.25,14.06,14.77,16.9,25.56h-26.7c-1.99-4.17-4.81-7.34-8.45-9.51-3.65-2.18-7.79-3.27-12.42-3.27-7.48,0-13.54,2.6-18.18,7.81-4.64,5.21-6.96,12.17-6.96,20.87s2.32,15.67,6.96,20.87c4.64,5.21,10.7,7.81,18.18,7.81,4.64,0,8.78-1.09,12.42-3.27,3.64-2.18,6.46-5.35,8.45-9.51h26.7c-2.84,10.79-8.47,19.29-16.9,25.49-8.43,6.2-18.56,9.3-30.39,9.3-9.66,0-18.29-2.15-25.91-6.46-7.62-4.31-13.56-10.29-17.82-17.96s-6.39-16.42-6.39-26.27,2.13-18.62,6.39-26.34Z" style="fill: #f15a24;"/>
      <path d="m378.33,83.96h-37.2l-5.96,17.61h-25.42L345.81,1.89h28.12l36.07,99.68h-25.7l-5.96-17.61Zm-6.25-18.74l-12.35-36.49-12.21,36.49h24.57Z" style="fill: #f15a24;"/>
      <path d="m445.21,82.83h31.81v18.74h-56.09V1.89h24.28v80.94Z" style="fill: #f15a24;"/>
      <path d="m512.94,82.83h31.81v18.74h-56.09V1.89h24.28v80.94Z" style="fill: #f15a24;"/>
      <path d="m641.87,1.89l-34.51,66.74v32.94h-24.28v-32.94L548.58,1.89h27.55l19.31,41.75,19.17-41.75h27.26Z" style="fill: #f15a24;"/>
      <path d="m25.03,191.74v20.16h32.52v18.74H25.03v21.87h36.78v19.45H.75v-99.68h61.06v19.45H25.03Z" style="fill: #f15a24;"/>
      <path d="m148.57,289.01l-12.78-17.18c-3.79.76-7.48,1.14-11.08,1.14-9.37,0-17.96-2.18-25.77-6.53-7.81-4.35-14.01-10.44-18.6-18.25-4.59-7.81-6.89-16.59-6.89-26.34s2.29-18.51,6.89-26.27c4.59-7.76,10.79-13.82,18.6-18.18,7.81-4.35,16.4-6.53,25.77-6.53s17.96,2.18,25.77,6.53c7.81,4.36,13.96,10.42,18.46,18.18,4.5,7.76,6.75,16.52,6.75,26.27,0,8.52-1.73,16.31-5.18,23.36-3.46,7.05-8.26,12.9-14.41,17.54l21.87,26.27h-29.39Zm-43.1-46.08c4.78,5.25,11.19,7.88,19.24,7.88s14.32-2.65,19.1-7.95c4.78-5.3,7.17-12.3,7.17-21.02s-2.39-15.83-7.17-21.09c-4.78-5.25-11.15-7.88-19.1-7.88s-14.46,2.6-19.24,7.81c-4.78,5.21-7.17,12.26-7.17,21.16s2.39,15.83,7.17,21.09Z" style="fill: #f15a24;"/>
      <path d="m213.32,172.29v59.64c0,5.96,1.47,10.56,4.4,13.77,2.93,3.22,7.24,4.83,12.92,4.83s10.03-1.61,13.06-4.83c3.03-3.22,4.54-7.81,4.54-13.77v-59.64h24.28v59.5c0,8.9-1.89,16.42-5.68,22.58-3.79,6.16-8.88,10.79-15.27,13.92-6.39,3.12-13.51,4.69-21.37,4.69s-14.89-1.54-21.09-4.62c-6.2-3.08-11.1-7.71-14.7-13.92-3.6-6.2-5.4-13.75-5.4-22.65v-59.5h24.28Z" style="fill: #f15a24;"/>
      <path d="m313.86,172.29v99.68h-24.28v-99.68h24.28Z" style="fill: #f15a24;"/>
      <path d="m403.46,220.21c-2.65,4.78-6.72,8.64-12.21,11.57-5.49,2.93-12.31,4.4-20.45,4.4h-15.05v35.78h-24.28v-99.68h39.33c7.95,0,14.67,1.37,20.16,4.12,5.49,2.75,9.61,6.53,12.35,11.36,2.74,4.83,4.12,10.37,4.12,16.61,0,5.78-1.33,11.05-3.98,15.83Zm-24.14-6.6c2.27-2.18,3.41-5.25,3.41-9.23s-1.14-7.05-3.41-9.23c-2.27-2.18-5.73-3.27-10.37-3.27h-13.21v24.99h13.21c4.64,0,8.09-1.09,10.37-3.27Z" style="fill: #f15a24;"/>
      <path d="m492.07,220.21c-2.65,4.78-6.72,8.64-12.21,11.57-5.49,2.93-12.31,4.4-20.45,4.4h-15.05v35.78h-24.28v-99.68h39.33c7.95,0,14.67,1.37,20.16,4.12,5.49,2.75,9.61,6.53,12.35,11.36,2.74,4.83,4.12,10.37,4.12,16.61,0,5.78-1.33,11.05-3.98,15.83Zm-24.14-6.6c2.27-2.18,3.41-5.25,3.41-9.23s-1.14-7.05-3.41-9.23c-2.27-2.18-5.73-3.27-10.37-3.27h-13.21v24.99h13.21c4.64,0,8.09-1.09,10.37-3.27Z" style="fill: #f15a24;"/>
      <path d="m532.96,191.74v20.16h32.52v18.74h-32.52v21.87h36.78v19.45h-61.06v-99.68h61.06v19.45h-36.78Z" style="fill: #f15a24;"/>
      <path d="m650.39,178.54c7.86,4.17,13.94,10.01,18.25,17.54,4.31,7.53,6.46,16.21,6.46,26.06s-2.15,18.41-6.46,25.99c-4.31,7.58-10.42,13.44-18.32,17.61-7.91,4.17-17.06,6.25-27.48,6.25h-37.35v-99.68h37.35c10.51,0,19.69,2.08,27.55,6.25Zm-7.67,64.89c5.11-5.02,7.67-12.12,7.67-21.3s-2.56-16.33-7.67-21.44c-5.11-5.11-12.26-7.67-21.44-7.67h-11.5v57.94h11.5c9.18,0,16.33-2.51,21.44-7.53Z" style="fill: #f15a24;"/>
    </g>
  </g>
  <g id="STROCK">
    <g>
      <path d="m25.03,21.34v20.16h32.52v18.74H25.03v21.87h36.78v19.45H.75V1.89h61.06v19.45H25.03Z" style="fill: none; stroke: #f15a24; stroke-miterlimit: 10; stroke-width: 1.5px;"/>
      <path d="m149.56,49.81c-2.65,4.78-6.72,8.64-12.21,11.57-5.49,2.93-12.31,4.4-20.45,4.4h-15.05v35.78h-24.28V1.89h39.33c7.95,0,14.67,1.37,20.16,4.12,5.49,2.75,9.61,6.53,12.35,11.36,2.74,4.83,4.12,10.37,4.12,16.61,0,5.78-1.33,11.05-3.98,15.83Zm-24.14-6.6c2.27-2.18,3.41-5.25,3.41-9.23s-1.14-7.05-3.41-9.23c-2.27-2.18-5.73-3.27-10.37-3.27h-13.21v24.99h13.21c4.64,0,8.09-1.09,10.37-3.27Z" style="fill: none; stroke: #f15a24; stroke-miterlimit: 10; stroke-width: 1.5px;"/>
      <path d="m190.46,1.89v99.68h-24.28V1.89h24.28Z" style="fill: none; stroke: #f15a24; stroke-miterlimit: 10; stroke-width: 1.5px;"/>
      <path d="m210.34,25.25c4.26-7.71,10.2-13.72,17.82-18.03,7.62-4.31,16.26-6.46,25.91-6.46,11.83,0,21.96,3.12,30.39,9.37,8.42,6.25,14.06,14.77,16.9,25.56h-26.7c-1.99-4.17-4.81-7.34-8.45-9.51-3.65-2.18-7.79-3.27-12.42-3.27-7.48,0-13.54,2.6-18.18,7.81-4.64,5.21-6.96,12.17-6.96,20.87s2.32,15.67,6.96,20.87c4.64,5.21,10.7,7.81,18.18,7.81,4.64,0,8.78-1.09,12.42-3.27,3.64-2.18,6.46-5.35,8.45-9.51h26.7c-2.84,10.79-8.47,19.29-16.9,25.49-8.43,6.2-18.56,9.3-30.39,9.3-9.66,0-18.29-2.15-25.91-6.46-7.62-4.31-13.56-10.29-17.82-17.96s-6.39-16.42-6.39-26.27,2.13-18.62,6.39-26.34Z" style="fill: none; stroke: #f15a24; stroke-miterlimit: 10; stroke-width: 1.5px;"/>
      <path d="m378.33,83.96h-37.2l-5.96,17.61h-25.42L345.81,1.89h28.12l36.07,99.68h-25.7l-5.96-17.61Zm-6.25-18.74l-12.35-36.49-12.21,36.49h24.57Z" style="fill: none; stroke: #f15a24; stroke-miterlimit: 10; stroke-width: 1.5px;"/>
      <path d="m445.21,82.83h31.81v18.74h-56.09V1.89h24.28v80.94Z" style="fill: none; stroke: #f15a24; stroke-miterlimit: 10; stroke-width: 1.5px;"/>
      <path d="m512.94,82.83h31.81v18.74h-56.09V1.89h24.28v80.94Z" style="fill: none; stroke: #f15a24; stroke-miterlimit: 10; stroke-width: 1.5px;"/>
      <path d="m641.87,1.89l-34.51,66.74v32.94h-24.28v-32.94L548.58,1.89h27.55l19.31,41.75,19.17-41.75h27.26Z" style="fill: none; stroke: #f15a24; stroke-miterlimit: 10; stroke-width: 1.5px;"/>
      <path d="m25.03,191.74v20.16h32.52v18.74H25.03v21.87h36.78v19.45H.75v-99.68h61.06v19.45H25.03Z" style="fill: none; stroke: #f15a24; stroke-miterlimit: 10; stroke-width: 1.5px;"/>
      <path d="m148.57,289.01l-12.78-17.18c-3.79.76-7.48,1.14-11.08,1.14-9.37,0-17.96-2.18-25.77-6.53-7.81-4.35-14.01-10.44-18.6-18.25-4.59-7.81-6.89-16.59-6.89-26.34s2.29-18.51,6.89-26.27c4.59-7.76,10.79-13.82,18.6-18.18,7.81-4.35,16.4-6.53,25.77-6.53s17.96,2.18,25.77,6.53c7.81,4.36,13.96,10.42,18.46,18.18,4.5,7.76,6.75,16.52,6.75,26.27,0,8.52-1.73,16.31-5.18,23.36-3.46,7.05-8.26,12.9-14.41,17.54l21.87,26.27h-29.39Zm-43.1-46.08c4.78,5.25,11.19,7.88,19.24,7.88s14.32-2.65,19.1-7.95c4.78-5.3,7.17-12.3,7.17-21.02s-2.39-15.83-7.17-21.09c-4.78-5.25-11.15-7.88-19.1-7.88s-14.46,2.6-19.24,7.81c-4.78,5.21-7.17,12.26-7.17,21.16s2.39,15.83,7.17,21.09Z" style="fill: none; stroke: #f15a24; stroke-miterlimit: 10; stroke-width: 1.5px;"/>
      <path d="m213.32,172.29v59.64c0,5.96,1.47,10.56,4.4,13.77,2.93,3.22,7.24,4.83,12.92,4.83s10.03-1.61,13.06-4.83c3.03-3.22,4.54-7.81,4.54-13.77v-59.64h24.28v59.5c0,8.9-1.89,16.42-5.68,22.58-3.79,6.16-8.88,10.79-15.27,13.92-6.39,3.12-13.51,4.69-21.37,4.69s-14.89-1.54-21.09-4.62c-6.2-3.08-11.1-7.71-14.7-13.92-3.6-6.2-5.4-13.75-5.4-22.65v-59.5h24.28Z" style="fill: none; stroke: #f15a24; stroke-miterlimit: 10; stroke-width: 1.5px;"/>
      <path d="m313.86,172.29v99.68h-24.28v-99.68h24.28Z" style="fill: none; stroke: #f15a24; stroke-miterlimit: 10; stroke-width: 1.5px;"/>
      <path d="m403.46,220.21c-2.65,4.78-6.72,8.64-12.21,11.57-5.49,2.93-12.31,4.4-20.45,4.4h-15.05v35.78h-24.28v-99.68h39.33c7.95,0,14.67,1.37,20.16,4.12,5.49,2.75,9.61,6.53,12.35,11.36,2.74,4.83,4.12,10.37,4.12,16.61,0,5.78-1.33,11.05-3.98,15.83Zm-24.14-6.6c2.27-2.18,3.41-5.25,3.41-9.23s-1.14-7.05-3.41-9.23c-2.27-2.18-5.73-3.27-10.37-3.27h-13.21v24.99h13.21c4.64,0,8.09-1.09,10.37-3.27Z" style="fill: none; stroke: #f15a24; stroke-miterlimit: 10; stroke-width: 1.5px;"/>
      <path d="m492.07,220.21c-2.65,4.78-6.72,8.64-12.21,11.57-5.49,2.93-12.31,4.4-20.45,4.4h-15.05v35.78h-24.28v-99.68h39.33c7.95,0,14.67,1.37,20.16,4.12,5.49,2.75,9.61,6.53,12.35,11.36,2.74,4.83,4.12,10.37,4.12,16.61,0,5.78-1.33,11.05-3.98,15.83Zm-24.14-6.6c2.27-2.18,3.41-5.25,3.41-9.23s-1.14-7.05-3.41-9.23c-2.27-2.18-5.73-3.27-10.37-3.27h-13.21v24.99h13.21c4.64,0,8.09-1.09,10.37-3.27Z" style="fill: none; stroke: #f15a24; stroke-miterlimit: 10; stroke-width: 1.5px;"/>
      <path d="m532.96,191.74v20.16h32.52v18.74h-32.52v21.87h36.78v19.45h-61.06v-99.68h61.06v19.45h-36.78Z" style="fill: none; stroke: #f15a24; stroke-miterlimit: 10; stroke-width: 1.5px;"/>
      <path d="m650.39,178.54c7.86,4.17,13.94,10.01,18.25,17.54,4.31,7.53,6.46,16.21,6.46,26.06s-2.15,18.41-6.46,25.99c-4.31,7.58-10.42,13.44-18.32,17.61-7.91,4.17-17.06,6.25-27.48,6.25h-37.35v-99.68h37.35c10.51,0,19.69,2.08,27.55,6.25Zm-7.67,64.89c5.11-5.02,7.67-12.12,7.67-21.3s-2.56-16.33-7.67-21.44c-5.11-5.11-12.26-7.67-21.44-7.67h-11.5v57.94h11.5c9.18,0,16.33-2.51,21.44-7.53Z" style="fill: none; stroke: #f15a24; stroke-miterlimit: 10; stroke-width: 1.5px;"/>
    </g>
  </g>
</svg>