<?xml version="1.0" encoding="UTF-8"?>
<svg xmlns="http://www.w3.org/2000/svg" viewBox="0 0 1137.35 286.78">
  <g id="FILL">
    <g>
      <g>
        <path d="m7.14,208.57c4.26-7.71,10.2-13.72,17.82-18.03,7.62-4.31,16.26-6.46,25.91-6.46,11.83,0,21.96,3.12,30.39,9.37,8.42,6.25,14.06,14.77,16.9,25.56h-26.7c-1.99-4.16-4.81-7.34-8.45-9.51-3.65-2.18-7.79-3.27-12.42-3.27-7.48,0-13.54,2.6-18.18,7.81-4.64,5.21-6.96,12.17-6.96,20.88s2.32,15.67,6.96,20.87c4.64,5.21,10.7,7.81,18.18,7.81,4.64,0,8.78-1.09,12.42-3.27,3.64-2.18,6.46-5.35,8.45-9.51h26.7c-2.84,10.79-8.47,19.29-16.9,25.49-8.43,6.2-18.56,9.3-30.39,9.3-9.66,0-18.29-2.15-25.91-6.46-7.62-4.31-13.56-10.29-17.82-17.96s-6.39-16.42-6.39-26.27,2.13-18.62,6.39-26.34Z" style="fill: #f15a24;"/>
        <path d="m112.86,223.69c3.08-6.15,7.26-10.88,12.57-14.2,5.3-3.31,11.22-4.97,17.75-4.97,5.58,0,10.48,1.14,14.7,3.41,4.21,2.27,7.45,5.25,9.73,8.95v-11.22h24.28v79.24h-24.28v-11.22c-2.37,3.69-5.66,6.67-9.87,8.95-4.21,2.27-9.11,3.41-14.7,3.41-6.44,0-12.31-1.68-17.61-5.04-5.3-3.36-9.49-8.14-12.57-14.34-3.08-6.2-4.62-13.37-4.62-21.51s1.54-15.29,4.62-21.44Zm49.7,7.24c-3.36-3.5-7.46-5.25-12.28-5.25s-8.92,1.73-12.28,5.18c-3.36,3.46-5.04,8.21-5.04,14.27s1.68,10.86,5.04,14.41c3.36,3.55,7.46,5.32,12.28,5.32s8.92-1.75,12.28-5.25c3.36-3.5,5.04-8.28,5.04-14.34s-1.68-10.84-5.04-14.34Z" style="fill: #f15a24;"/>
        <path d="m334.09,213.75c5.82,5.96,8.73,14.25,8.73,24.85v46.29h-24.14v-43.03c0-5.11-1.35-9.06-4.05-11.86-2.7-2.79-6.41-4.19-11.15-4.19s-8.45,1.4-11.15,4.19c-2.7,2.79-4.05,6.74-4.05,11.86v43.03h-24.14v-43.03c0-5.11-1.35-9.06-4.05-11.86-2.7-2.79-6.41-4.19-11.15-4.19s-8.45,1.4-11.15,4.19c-2.7,2.79-4.05,6.74-4.05,11.86v43.03h-24.28v-79.24h24.28v9.94c2.46-3.31,5.68-5.94,9.66-7.88,3.98-1.94,8.47-2.91,13.49-2.91,5.96,0,11.29,1.28,15.97,3.83,4.69,2.55,8.35,6.2,11,10.93,2.75-4.35,6.48-7.9,11.22-10.65,4.73-2.74,9.89-4.12,15.48-4.12,9.84,0,17.68,2.98,23.5,8.95Z" style="fill: #f15a24;"/>
        <path d="m434.13,251.1h-54.95c.38,4.92,1.96,8.69,4.76,11.29,2.79,2.61,6.22,3.91,10.29,3.91,6.06,0,10.27-2.56,12.64-7.67h25.84c-1.33,5.21-3.72,9.89-7.17,14.06-3.46,4.17-7.79,7.43-12.99,9.8-5.21,2.37-11.03,3.55-17.47,3.55-7.76,0-14.67-1.65-20.73-4.97-6.06-3.31-10.79-8.04-14.2-14.2-3.41-6.15-5.11-13.35-5.11-21.58s1.68-15.43,5.04-21.58c3.36-6.15,8.07-10.88,14.13-14.2,6.06-3.31,13.01-4.97,20.87-4.97s14.48,1.61,20.45,4.83c5.96,3.22,10.63,7.81,13.99,13.78,3.36,5.96,5.04,12.92,5.04,20.87,0,2.27-.14,4.64-.43,7.1Zm-24.42-13.49c0-4.16-1.42-7.48-4.26-9.94-2.84-2.46-6.39-3.69-10.65-3.69s-7.5,1.18-10.29,3.55c-2.79,2.37-4.52,5.73-5.18,10.08h30.39Z" style="fill: #f15a24;"/>
        <path d="m482.27,208.57c4.26-2.51,8.99-3.76,14.2-3.76v25.7h-6.67c-6.06,0-10.6,1.3-13.63,3.9-3.03,2.61-4.54,7.17-4.54,13.7v36.78h-24.28v-79.24h24.28v13.21c2.84-4.35,6.39-7.79,10.65-10.29Z" style="fill: #f15a24;"/>
        <path d="m507.9,223.69c3.08-6.15,7.26-10.88,12.57-14.2,5.3-3.31,11.22-4.97,17.75-4.97,5.58,0,10.48,1.14,14.7,3.41,4.21,2.27,7.45,5.25,9.73,8.95v-11.22h24.28v79.24h-24.28v-11.22c-2.37,3.69-5.66,6.67-9.87,8.95-4.21,2.27-9.11,3.41-14.7,3.41-6.44,0-12.31-1.68-17.61-5.04-5.3-3.36-9.49-8.14-12.57-14.34-3.08-6.2-4.62-13.37-4.62-21.51s1.54-15.29,4.62-21.44Zm49.7,7.24c-3.36-3.5-7.46-5.25-12.28-5.25s-8.92,1.73-12.28,5.18c-3.36,3.46-5.04,8.21-5.04,14.27s1.68,10.86,5.04,14.41c3.36,3.55,7.46,5.32,12.28,5.32s8.92-1.75,12.28-5.25c3.36-3.5,5.04-8.28,5.04-14.34s-1.68-10.84-5.04-14.34Z" style="fill: #f15a24;"/>
        <path d="m605.45,282.27c-2.7-2.51-4.05-5.61-4.05-9.3s1.35-6.96,4.05-9.52c2.7-2.55,6.18-3.83,10.44-3.83s7.6,1.28,10.29,3.83c2.7,2.56,4.05,5.73,4.05,9.52s-1.35,6.79-4.05,9.3c-2.7,2.51-6.13,3.76-10.29,3.76s-7.74-1.25-10.44-3.76Z" style="fill: #f15a24;"/>
      </g>
      <g>
        <path d="m490.36,95.75h31.81v18.74h-56.09V14.81h24.28v80.94Z" style="fill: #f15a24;"/>
        <path d="m548.94,110.66c-6.2-3.31-11.08-8.04-14.63-14.2-3.55-6.15-5.33-13.35-5.33-21.58s1.8-15.31,5.4-21.51c3.6-6.2,8.52-10.96,14.77-14.27,6.25-3.31,13.25-4.97,21.02-4.97s14.77,1.66,21.02,4.97c6.25,3.32,11.17,8.07,14.77,14.27,3.6,6.2,5.4,13.37,5.4,21.51s-1.82,15.31-5.47,21.51c-3.65,6.2-8.62,10.96-14.91,14.27-6.3,3.31-13.33,4.97-21.09,4.97s-14.75-1.66-20.95-4.97Zm32.8-21.16c3.27-3.41,4.9-8.28,4.9-14.63s-1.59-11.22-4.76-14.63c-3.17-3.41-7.08-5.11-11.71-5.11s-8.66,1.68-11.79,5.04c-3.12,3.36-4.69,8.26-4.69,14.7s1.54,11.22,4.62,14.63c3.08,3.41,6.93,5.11,11.57,5.11s8.59-1.7,11.86-5.11Z" style="fill: #f15a24;"/>
        <path d="m738.01,35.26l-21.44,79.24h-26.84l-12.5-51.4-12.92,51.4h-26.7l-21.58-79.24h24.28l11.22,56.66,13.35-56.66h25.7l13.49,56.37,11.08-56.37h22.86Z" style="fill: #f15a24;"/>
        <path d="m801.62,9.41v105.08h-24.28V9.41h24.28Z" style="fill: #f15a24;"/>
        <path d="m821.01,23.26c-2.7-2.51-4.05-5.61-4.05-9.3s1.35-6.93,4.05-9.44c2.7-2.51,6.18-3.76,10.44-3.76s7.6,1.26,10.29,3.76c2.7,2.51,4.05,5.66,4.05,9.44s-1.35,6.79-4.05,9.3c-2.7,2.51-6.13,3.76-10.29,3.76s-7.74-1.25-10.44-3.76Zm22.51,12v79.24h-24.28V35.26h24.28Z" style="fill: #f15a24;"/>
        <path d="m905.92,37.53c4.21,2.27,7.45,5.25,9.73,8.95v-11.22h24.28v79.09c0,7.29-1.44,13.89-4.33,19.81-2.89,5.92-7.29,10.63-13.21,14.13-5.92,3.5-13.28,5.25-22.08,5.25-11.74,0-21.25-2.77-28.54-8.31-7.29-5.54-11.46-13.04-12.5-22.51h24c.76,3.03,2.56,5.42,5.4,7.17,2.84,1.75,6.34,2.63,10.51,2.63,5.02,0,9.02-1.44,12-4.33,2.98-2.89,4.47-7.5,4.47-13.84v-11.22c-2.37,3.69-5.63,6.7-9.8,9.02-4.17,2.32-9.04,3.48-14.62,3.48-6.53,0-12.45-1.68-17.75-5.04-5.3-3.36-9.49-8.14-12.57-14.34-3.08-6.2-4.62-13.37-4.62-21.51s1.54-15.29,4.62-21.44c3.08-6.15,7.27-10.88,12.57-14.2,5.3-3.31,11.22-4.97,17.75-4.97,5.58,0,10.48,1.14,14.7,3.41Zm4.69,23c-3.36-3.5-7.46-5.25-12.28-5.25s-8.92,1.73-12.28,5.18c-3.36,3.46-5.04,8.21-5.04,14.27s1.68,10.86,5.04,14.41c3.36,3.55,7.46,5.32,12.28,5.32s8.92-1.75,12.28-5.25c3.36-3.5,5.04-8.28,5.04-14.34s-1.68-10.84-5.04-14.34Z" style="fill: #f15a24;"/>
        <path d="m1028.11,43.42c5.49,6.01,8.24,14.27,8.24,24.78v46.29h-24.14v-43.03c0-5.3-1.37-9.42-4.12-12.35-2.75-2.93-6.44-4.4-11.08-4.4s-8.33,1.47-11.08,4.4c-2.75,2.94-4.12,7.05-4.12,12.35v43.03h-24.28V9.41h24.28v36.49c2.46-3.5,5.82-6.29,10.08-8.38,4.26-2.08,9.04-3.12,14.34-3.12,9.09,0,16.38,3.01,21.87,9.02Z" style="fill: #f15a24;"/>
        <path d="m1097.4,93.9v20.59h-12.35c-8.8,0-15.67-2.15-20.59-6.46-4.92-4.31-7.38-11.34-7.38-21.09v-31.52h-9.65v-20.16h9.65V15.94h24.28v19.31h15.9v20.16h-15.9v31.81c0,2.37.57,4.07,1.7,5.11,1.14,1.04,3.03,1.56,5.68,1.56h8.66Z" style="fill: #f15a24;"/>
        <path d="m1111.82,111.87c-2.7-2.51-4.05-5.61-4.05-9.3s1.35-6.96,4.05-9.51c2.7-2.56,6.18-3.83,10.44-3.83s7.6,1.28,10.29,3.83c2.7,2.56,4.05,5.73,4.05,9.51s-1.35,6.79-4.05,9.3c-2.7,2.51-6.13,3.76-10.29,3.76s-7.74-1.25-10.44-3.76Z" style="fill: #f15a24;"/>
      </g>
      <g>
        <path d="m736.73,267.28h-37.2l-5.96,17.61h-25.42l36.07-99.68h28.12l36.07,99.68h-25.7l-5.96-17.61Zm-6.25-18.74l-12.35-36.49-12.21,36.49h24.57Z" style="fill: #f15a24;"/>
        <path d="m779.54,223.69c3.36-6.15,8.05-10.88,14.06-14.2,6.01-3.31,12.9-4.97,20.66-4.97,9.94,0,18.25,2.61,24.92,7.81,6.67,5.21,11.05,12.54,13.13,22.01h-25.84c-2.18-6.06-6.39-9.09-12.64-9.09-4.45,0-8,1.73-10.65,5.18-2.65,3.46-3.98,8.4-3.98,14.84s1.32,11.38,3.98,14.84c2.65,3.46,6.2,5.18,10.65,5.18,6.25,0,10.46-3.03,12.64-9.09h25.84c-2.08,9.28-6.48,16.57-13.21,21.87-6.72,5.3-15.01,7.95-24.85,7.95-7.76,0-14.65-1.65-20.66-4.97-6.01-3.31-10.7-8.04-14.06-14.2-3.36-6.15-5.04-13.35-5.04-21.58s1.68-15.43,5.04-21.58Z" style="fill: #f15a24;"/>
        <path d="m909.4,264.3v20.59h-12.35c-8.8,0-15.67-2.15-20.59-6.46-4.92-4.31-7.38-11.34-7.38-21.09v-31.52h-9.66v-20.16h9.66v-19.31h24.28v19.31h15.9v20.16h-15.9v31.81c0,2.37.57,4.07,1.71,5.11,1.13,1.04,3.03,1.56,5.68,1.56h8.66Z" style="fill: #f15a24;"/>
        <path d="m924.66,193.66c-2.7-2.51-4.05-5.61-4.05-9.3s1.35-6.93,4.05-9.44c2.7-2.51,6.18-3.76,10.44-3.76s7.6,1.26,10.29,3.76c2.7,2.51,4.05,5.66,4.05,9.44s-1.35,6.79-4.05,9.3c-2.7,2.51-6.13,3.76-10.29,3.76s-7.74-1.25-10.44-3.76Zm22.51,12v79.24h-24.28v-79.24h24.28Z" style="fill: #f15a24;"/>
        <path d="m979.9,281.06c-6.2-3.31-11.08-8.04-14.62-14.2-3.55-6.15-5.33-13.35-5.33-21.58s1.8-15.31,5.4-21.51c3.6-6.2,8.52-10.96,14.77-14.27,6.25-3.31,13.25-4.97,21.02-4.97s14.77,1.66,21.02,4.97c6.25,3.31,11.17,8.07,14.77,14.27,3.6,6.2,5.4,13.37,5.4,21.51s-1.82,15.31-5.47,21.51c-3.65,6.2-8.62,10.96-14.91,14.27-6.3,3.31-13.33,4.97-21.09,4.97s-14.75-1.65-20.95-4.97Zm32.8-21.16c3.27-3.41,4.9-8.28,4.9-14.63s-1.59-11.22-4.76-14.62c-3.17-3.41-7.08-5.11-11.71-5.11s-8.66,1.68-11.79,5.04c-3.12,3.36-4.69,8.26-4.69,14.7s1.54,11.22,4.62,14.63c3.07,3.41,6.93,5.11,11.57,5.11s8.59-1.7,11.86-5.11Z" style="fill: #f15a24;"/>
        <path d="m1125.73,213.82c5.54,6.01,8.31,14.27,8.31,24.78v46.29h-24.14v-43.03c0-5.3-1.37-9.42-4.12-12.35-2.75-2.93-6.44-4.4-11.08-4.4s-8.33,1.47-11.08,4.4c-2.75,2.94-4.12,7.05-4.12,12.35v43.03h-24.28v-79.24h24.28v10.51c2.46-3.5,5.77-6.27,9.94-8.31,4.16-2.04,8.85-3.05,14.06-3.05,9.28,0,16.68,3.01,22.22,9.02Z" style="fill: #f15a24;"/>
      </g>
    </g>
  </g>
  <g id="STROCK">
    <g>
      <g>
        <path d="m7.14,208.57c4.26-7.71,10.2-13.72,17.82-18.03,7.62-4.31,16.26-6.46,25.91-6.46,11.83,0,21.96,3.12,30.39,9.37,8.42,6.25,14.06,14.77,16.9,25.56h-26.7c-1.99-4.16-4.81-7.34-8.45-9.51-3.65-2.18-7.79-3.27-12.42-3.27-7.48,0-13.54,2.6-18.18,7.81-4.64,5.21-6.96,12.17-6.96,20.88s2.32,15.67,6.96,20.87c4.64,5.21,10.7,7.81,18.18,7.81,4.64,0,8.78-1.09,12.42-3.27,3.64-2.18,6.46-5.35,8.45-9.51h26.7c-2.84,10.79-8.47,19.29-16.9,25.49-8.43,6.2-18.56,9.3-30.39,9.3-9.66,0-18.29-2.15-25.91-6.46-7.62-4.31-13.56-10.29-17.82-17.96s-6.39-16.42-6.39-26.27,2.13-18.62,6.39-26.34Z" style="fill: none; stroke: #f15a24; stroke-miterlimit: 10; stroke-width: 1.5px;"/>
        <path d="m112.86,223.69c3.08-6.15,7.26-10.88,12.57-14.2,5.3-3.31,11.22-4.97,17.75-4.97,5.58,0,10.48,1.14,14.7,3.41,4.21,2.27,7.45,5.25,9.73,8.95v-11.22h24.28v79.24h-24.28v-11.22c-2.37,3.69-5.66,6.67-9.87,8.95-4.21,2.27-9.11,3.41-14.7,3.41-6.44,0-12.31-1.68-17.61-5.04-5.3-3.36-9.49-8.14-12.57-14.34-3.08-6.2-4.62-13.37-4.62-21.51s1.54-15.29,4.62-21.44Zm49.7,7.24c-3.36-3.5-7.46-5.25-12.28-5.25s-8.92,1.73-12.28,5.18c-3.36,3.46-5.04,8.21-5.04,14.27s1.68,10.86,5.04,14.41c3.36,3.55,7.46,5.32,12.28,5.32s8.92-1.75,12.28-5.25c3.36-3.5,5.04-8.28,5.04-14.34s-1.68-10.84-5.04-14.34Z" style="fill: none; stroke: #f15a24; stroke-miterlimit: 10; stroke-width: 1.5px;"/>
        <path d="m334.09,213.75c5.82,5.96,8.73,14.25,8.73,24.85v46.29h-24.14v-43.03c0-5.11-1.35-9.06-4.05-11.86-2.7-2.79-6.41-4.19-11.15-4.19s-8.45,1.4-11.15,4.19c-2.7,2.79-4.05,6.74-4.05,11.86v43.03h-24.14v-43.03c0-5.11-1.35-9.06-4.05-11.86-2.7-2.79-6.41-4.19-11.15-4.19s-8.45,1.4-11.15,4.19c-2.7,2.79-4.05,6.74-4.05,11.86v43.03h-24.28v-79.24h24.28v9.94c2.46-3.31,5.68-5.94,9.66-7.88,3.98-1.94,8.47-2.91,13.49-2.91,5.96,0,11.29,1.28,15.97,3.83,4.69,2.55,8.35,6.2,11,10.93,2.75-4.35,6.48-7.9,11.22-10.65,4.73-2.74,9.89-4.12,15.48-4.12,9.84,0,17.68,2.98,23.5,8.95Z" style="fill: none; stroke: #f15a24; stroke-miterlimit: 10; stroke-width: 1.5px;"/>
        <path d="m434.13,251.1h-54.95c.38,4.92,1.96,8.69,4.76,11.29,2.79,2.61,6.22,3.91,10.29,3.91,6.06,0,10.27-2.56,12.64-7.67h25.84c-1.33,5.21-3.72,9.89-7.17,14.06-3.46,4.17-7.79,7.43-12.99,9.8-5.21,2.37-11.03,3.55-17.47,3.55-7.76,0-14.67-1.65-20.73-4.97-6.06-3.31-10.79-8.04-14.2-14.2-3.41-6.15-5.11-13.35-5.11-21.58s1.68-15.43,5.04-21.58c3.36-6.15,8.07-10.88,14.13-14.2,6.06-3.31,13.01-4.97,20.87-4.97s14.48,1.61,20.45,4.83c5.96,3.22,10.63,7.81,13.99,13.78,3.36,5.96,5.04,12.92,5.04,20.87,0,2.27-.14,4.64-.43,7.1Zm-24.42-13.49c0-4.16-1.42-7.48-4.26-9.94-2.84-2.46-6.39-3.69-10.65-3.69s-7.5,1.18-10.29,3.55c-2.79,2.37-4.52,5.73-5.18,10.08h30.39Z" style="fill: none; stroke: #f15a24; stroke-miterlimit: 10; stroke-width: 1.5px;"/>
        <path d="m482.27,208.57c4.26-2.51,8.99-3.76,14.2-3.76v25.7h-6.67c-6.06,0-10.6,1.3-13.63,3.9-3.03,2.61-4.54,7.17-4.54,13.7v36.78h-24.28v-79.24h24.28v13.21c2.84-4.35,6.39-7.79,10.65-10.29Z" style="fill: none; stroke: #f15a24; stroke-miterlimit: 10; stroke-width: 1.5px;"/>
        <path d="m507.9,223.69c3.08-6.15,7.26-10.88,12.57-14.2,5.3-3.31,11.22-4.97,17.75-4.97,5.58,0,10.48,1.14,14.7,3.41,4.21,2.27,7.45,5.25,9.73,8.95v-11.22h24.28v79.24h-24.28v-11.22c-2.37,3.69-5.66,6.67-9.87,8.95-4.21,2.27-9.11,3.41-14.7,3.41-6.44,0-12.31-1.68-17.61-5.04-5.3-3.36-9.49-8.14-12.57-14.34-3.08-6.2-4.62-13.37-4.62-21.51s1.54-15.29,4.62-21.44Zm49.7,7.24c-3.36-3.5-7.46-5.25-12.28-5.25s-8.92,1.73-12.28,5.18c-3.36,3.46-5.04,8.21-5.04,14.27s1.68,10.86,5.04,14.41c3.36,3.55,7.46,5.32,12.28,5.32s8.92-1.75,12.28-5.25c3.36-3.5,5.04-8.28,5.04-14.34s-1.68-10.84-5.04-14.34Z" style="fill: none; stroke: #f15a24; stroke-miterlimit: 10; stroke-width: 1.5px;"/>
        <path d="m605.45,282.27c-2.7-2.51-4.05-5.61-4.05-9.3s1.35-6.96,4.05-9.52c2.7-2.55,6.18-3.83,10.44-3.83s7.6,1.28,10.29,3.83c2.7,2.56,4.05,5.73,4.05,9.52s-1.35,6.79-4.05,9.3c-2.7,2.51-6.13,3.76-10.29,3.76s-7.74-1.25-10.44-3.76Z" style="fill: none; stroke: #f15a24; stroke-miterlimit: 10; stroke-width: 1.5px;"/>
      </g>
      <g>
        <path d="m490.36,95.75h31.81v18.74h-56.09V14.81h24.28v80.94Z" style="fill: none; stroke: #f15a24; stroke-miterlimit: 10; stroke-width: 1.5px;"/>
        <path d="m548.94,110.66c-6.2-3.31-11.08-8.04-14.63-14.2-3.55-6.15-5.33-13.35-5.33-21.58s1.8-15.31,5.4-21.51c3.6-6.2,8.52-10.96,14.77-14.27,6.25-3.31,13.25-4.97,21.02-4.97s14.77,1.66,21.02,4.97c6.25,3.32,11.17,8.07,14.77,14.27,3.6,6.2,5.4,13.37,5.4,21.51s-1.82,15.31-5.47,21.51c-3.65,6.2-8.62,10.96-14.91,14.27-6.3,3.31-13.33,4.97-21.09,4.97s-14.75-1.66-20.95-4.97Zm32.8-21.16c3.27-3.41,4.9-8.28,4.9-14.63s-1.59-11.22-4.76-14.63c-3.17-3.41-7.08-5.11-11.71-5.11s-8.66,1.68-11.79,5.04c-3.12,3.36-4.69,8.26-4.69,14.7s1.54,11.22,4.62,14.63c3.08,3.41,6.93,5.11,11.57,5.11s8.59-1.7,11.86-5.11Z" style="fill: none; stroke: #f15a24; stroke-miterlimit: 10; stroke-width: 1.5px;"/>
        <path d="m738.01,35.26l-21.44,79.24h-26.84l-12.5-51.4-12.92,51.4h-26.7l-21.58-79.24h24.28l11.22,56.66,13.35-56.66h25.7l13.49,56.37,11.08-56.37h22.86Z" style="fill: none; stroke: #f15a24; stroke-miterlimit: 10; stroke-width: 1.5px;"/>
        <path d="m801.62,9.41v105.08h-24.28V9.41h24.28Z" style="fill: none; stroke: #f15a24; stroke-miterlimit: 10; stroke-width: 1.5px;"/>
        <path d="m821.01,23.26c-2.7-2.51-4.05-5.61-4.05-9.3s1.35-6.93,4.05-9.44c2.7-2.51,6.18-3.76,10.44-3.76s7.6,1.26,10.29,3.76c2.7,2.51,4.05,5.66,4.05,9.44s-1.35,6.79-4.05,9.3c-2.7,2.51-6.13,3.76-10.29,3.76s-7.74-1.25-10.44-3.76Zm22.51,12v79.24h-24.28V35.26h24.28Z" style="fill: none; stroke: #f15a24; stroke-miterlimit: 10; stroke-width: 1.5px;"/>
        <path d="m905.92,37.53c4.21,2.27,7.45,5.25,9.73,8.95v-11.22h24.28v79.09c0,7.29-1.44,13.89-4.33,19.81-2.89,5.92-7.29,10.63-13.21,14.13-5.92,3.5-13.28,5.25-22.08,5.25-11.74,0-21.25-2.77-28.54-8.31-7.29-5.54-11.46-13.04-12.5-22.51h24c.76,3.03,2.56,5.42,5.4,7.17,2.84,1.75,6.34,2.63,10.51,2.63,5.02,0,9.02-1.44,12-4.33,2.98-2.89,4.47-7.5,4.47-13.84v-11.22c-2.37,3.69-5.63,6.7-9.8,9.02-4.17,2.32-9.04,3.48-14.62,3.48-6.53,0-12.45-1.68-17.75-5.04-5.3-3.36-9.49-8.14-12.57-14.34-3.08-6.2-4.62-13.37-4.62-21.51s1.54-15.29,4.62-21.44c3.08-6.15,7.27-10.88,12.57-14.2,5.3-3.31,11.22-4.97,17.75-4.97,5.58,0,10.48,1.14,14.7,3.41Zm4.69,23c-3.36-3.5-7.46-5.25-12.28-5.25s-8.92,1.73-12.28,5.18c-3.36,3.46-5.04,8.21-5.04,14.27s1.68,10.86,5.04,14.41c3.36,3.55,7.46,5.32,12.28,5.32s8.92-1.75,12.28-5.25c3.36-3.5,5.04-8.28,5.04-14.34s-1.68-10.84-5.04-14.34Z" style="fill: none; stroke: #f15a24; stroke-miterlimit: 10; stroke-width: 1.5px;"/>
        <path d="m1028.11,43.42c5.49,6.01,8.24,14.27,8.24,24.78v46.29h-24.14v-43.03c0-5.3-1.37-9.42-4.12-12.35-2.75-2.93-6.44-4.4-11.08-4.4s-8.33,1.47-11.08,4.4c-2.75,2.94-4.12,7.05-4.12,12.35v43.03h-24.28V9.41h24.28v36.49c2.46-3.5,5.82-6.29,10.08-8.38,4.26-2.08,9.04-3.12,14.34-3.12,9.09,0,16.38,3.01,21.87,9.02Z" style="fill: none; stroke: #f15a24; stroke-miterlimit: 10; stroke-width: 1.5px;"/>
        <path d="m1097.4,93.9v20.59h-12.35c-8.8,0-15.67-2.15-20.59-6.46-4.92-4.31-7.38-11.34-7.38-21.09v-31.52h-9.65v-20.16h9.65V15.94h24.28v19.31h15.9v20.16h-15.9v31.81c0,2.37.57,4.07,1.7,5.11,1.14,1.04,3.03,1.56,5.68,1.56h8.66Z" style="fill: none; stroke: #f15a24; stroke-miterlimit: 10; stroke-width: 1.5px;"/>
        <path d="m1111.82,111.87c-2.7-2.51-4.05-5.61-4.05-9.3s1.35-6.96,4.05-9.51c2.7-2.56,6.18-3.83,10.44-3.83s7.6,1.28,10.29,3.83c2.7,2.56,4.05,5.73,4.05,9.51s-1.35,6.79-4.05,9.3c-2.7,2.51-6.13,3.76-10.29,3.76s-7.74-1.25-10.44-3.76Z" style="fill: none; stroke: #f15a24; stroke-miterlimit: 10; stroke-width: 1.5px;"/>
      </g>
      <g>
        <path d="m736.73,267.28h-37.2l-5.96,17.61h-25.42l36.07-99.68h28.12l36.07,99.68h-25.7l-5.96-17.61Zm-6.25-18.74l-12.35-36.49-12.21,36.49h24.57Z" style="fill: none; stroke: #f15a24; stroke-miterlimit: 10; stroke-width: 1.5px;"/>
        <path d="m779.54,223.69c3.36-6.15,8.05-10.88,14.06-14.2,6.01-3.31,12.9-4.97,20.66-4.97,9.94,0,18.25,2.61,24.92,7.81,6.67,5.21,11.05,12.54,13.13,22.01h-25.84c-2.18-6.06-6.39-9.09-12.64-9.09-4.45,0-8,1.73-10.65,5.18-2.65,3.46-3.98,8.4-3.98,14.84s1.32,11.38,3.98,14.84c2.65,3.46,6.2,5.18,10.65,5.18,6.25,0,10.46-3.03,12.64-9.09h25.84c-2.08,9.28-6.48,16.57-13.21,21.87-6.72,5.3-15.01,7.95-24.85,7.95-7.76,0-14.65-1.65-20.66-4.97-6.01-3.31-10.7-8.04-14.06-14.2-3.36-6.15-5.04-13.35-5.04-21.58s1.68-15.43,5.04-21.58Z" style="fill: none; stroke: #f15a24; stroke-miterlimit: 10; stroke-width: 1.5px;"/>
        <path d="m909.4,264.3v20.59h-12.35c-8.8,0-15.67-2.15-20.59-6.46-4.92-4.31-7.38-11.34-7.38-21.09v-31.52h-9.66v-20.16h9.66v-19.31h24.28v19.31h15.9v20.16h-15.9v31.81c0,2.37.57,4.07,1.71,5.11,1.13,1.04,3.03,1.56,5.68,1.56h8.66Z" style="fill: none; stroke: #f15a24; stroke-miterlimit: 10; stroke-width: 1.5px;"/>
        <path d="m924.66,193.66c-2.7-2.51-4.05-5.61-4.05-9.3s1.35-6.93,4.05-9.44c2.7-2.51,6.18-3.76,10.44-3.76s7.6,1.26,10.29,3.76c2.7,2.51,4.05,5.66,4.05,9.44s-1.35,6.79-4.05,9.3c-2.7,2.51-6.13,3.76-10.29,3.76s-7.74-1.25-10.44-3.76Zm22.51,12v79.24h-24.28v-79.24h24.28Z" style="fill: none; stroke: #f15a24; stroke-miterlimit: 10; stroke-width: 1.5px;"/>
        <path d="m979.9,281.06c-6.2-3.31-11.08-8.04-14.62-14.2-3.55-6.15-5.33-13.35-5.33-21.58s1.8-15.31,5.4-21.51c3.6-6.2,8.52-10.96,14.77-14.27,6.25-3.31,13.25-4.97,21.02-4.97s14.77,1.66,21.02,4.97c6.25,3.31,11.17,8.07,14.77,14.27,3.6,6.2,5.4,13.37,5.4,21.51s-1.82,15.31-5.47,21.51c-3.65,6.2-8.62,10.96-14.91,14.27-6.3,3.31-13.33,4.97-21.09,4.97s-14.75-1.65-20.95-4.97Zm32.8-21.16c3.27-3.41,4.9-8.28,4.9-14.63s-1.59-11.22-4.76-14.62c-3.17-3.41-7.08-5.11-11.71-5.11s-8.66,1.68-11.79,5.04c-3.12,3.36-4.69,8.26-4.69,14.7s1.54,11.22,4.62,14.63c3.07,3.41,6.93,5.11,11.57,5.11s8.59-1.7,11.86-5.11Z" style="fill: none; stroke: #f15a24; stroke-miterlimit: 10; stroke-width: 1.5px;"/>
        <path d="m1125.73,213.82c5.54,6.01,8.31,14.27,8.31,24.78v46.29h-24.14v-43.03c0-5.3-1.37-9.42-4.12-12.35-2.75-2.93-6.44-4.4-11.08-4.4s-8.33,1.47-11.08,4.4c-2.75,2.94-4.12,7.05-4.12,12.35v43.03h-24.28v-79.24h24.28v10.51c2.46-3.5,5.77-6.27,9.94-8.31,4.16-2.04,8.85-3.05,14.06-3.05,9.28,0,16.68,3.01,22.22,9.02Z" style="fill: none; stroke: #f15a24; stroke-miterlimit: 10; stroke-width: 1.5px;"/>
      </g>
    </g>
  </g>
</svg>