<?xml version="1.0" encoding="UTF-8"?>
<svg xmlns="http://www.w3.org/2000/svg" viewBox="0 0 1202.79 150.8">
  <g id="GAL">
    <path d="m99,53.4c-2.54-4.67-6.17-8.23-10.9-10.7-4.73-2.47-10.3-3.7-16.7-3.7-11.07,0-19.93,3.63-26.6,10.9-6.67,7.27-10,16.97-10,29.1,0,12.93,3.5,23.04,10.5,30.3,7,7.27,16.63,10.9,28.9,10.9,8.4,0,15.5-2.13,21.3-6.4,5.8-4.27,10.03-10.4,12.7-18.4h-43.4v-25.2h74.4v31.8c-2.53,8.54-6.83,16.47-12.9,23.8-6.07,7.33-13.77,13.27-23.1,17.8-9.33,4.53-19.87,6.8-31.6,6.8-13.87,0-26.23-3.03-37.1-9.1-10.87-6.07-19.33-14.5-25.4-25.3C3.03,105.2,0,92.87,0,79s3.03-26.23,9.1-37.1c6.07-10.87,14.5-19.33,25.3-25.4,10.8-6.07,23.13-9.1,37-9.1,16.8,0,30.97,4.07,42.5,12.2,11.53,8.13,19.17,19.4,22.9,33.8h-37.8Z" style="fill: #ccc;"/>
    <path d="m245.6,124.6h-52.4l-8.4,24.8h-35.8L199.8,9h39.6l50.8,140.4h-36.2l-8.4-24.8Zm-8.8-26.4l-17.4-51.4-17.2,51.4h34.6Z" style="fill: #ccc;"/>
    <path d="m339.8,123h44.8v26.4h-79V9h34.2v114Z" style="fill: #ccc;"/>
  </g>
  <g id="AXY">
    <path d="m488.4,124.6h-52.4l-8.4,24.8h-35.8L442.6,9h39.6l50.8,140.4h-36.2l-8.4-24.8Zm-8.8-26.4l-17.4-51.4-17.2,51.4h34.6Z" style="fill: #ccc;"/>
    <path d="m634.4,149.4l-28.6-43-25.2,43h-38.8l45-71.4-46-69h39.8l28.2,42.4,24.8-42.4h38.8l-44.6,70.8,46.4,69.6h-39.8Z" style="fill: #ccc;"/>
    <path d="m811.79,9l-48.6,94v46.4h-34.2v-46.4l-48.6-94h38.8l27.2,58.8,27-58.8h38.4Z" style="fill: #ccc;"/>
  </g>
  <g id="S23">
    <path d="m891.19,145.8c-8.13-3.33-14.63-8.27-19.5-14.8-4.87-6.53-7.43-14.4-7.7-23.6h36.4c.53,5.2,2.33,9.17,5.4,11.9,3.07,2.73,7.07,4.1,12,4.1s9.07-1.17,12-3.5c2.93-2.33,4.4-5.57,4.4-9.7,0-3.47-1.17-6.33-3.5-8.6-2.33-2.27-5.2-4.13-8.6-5.6-3.4-1.46-8.23-3.13-14.5-5-9.07-2.8-16.47-5.6-22.2-8.4-5.73-2.8-10.67-6.93-14.8-12.4-4.13-5.47-6.2-12.6-6.2-21.4,0-13.07,4.73-23.3,14.2-30.7,9.47-7.4,21.8-11.1,37-11.1s27.93,3.7,37.4,11.1c9.46,7.4,14.53,17.7,15.2,30.9h-37c-.27-4.53-1.93-8.1-5-10.7-3.07-2.6-7-3.9-11.8-3.9-4.13,0-7.47,1.1-10,3.3-2.53,2.2-3.8,5.37-3.8,9.5,0,4.53,2.13,8.07,6.4,10.6,4.27,2.53,10.93,5.27,20,8.2,9.07,3.07,16.43,6,22.1,8.8,5.67,2.8,10.57,6.87,14.7,12.2,4.13,5.33,6.2,12.2,6.2,20.6s-2.04,15.27-6.1,21.8c-4.07,6.53-9.97,11.73-17.7,15.6-7.73,3.87-16.87,5.8-27.4,5.8s-19.47-1.67-27.6-5Z" style="fill: #ccc;"/>
    <path d="m992.59,117c13.07-10.8,23.37-19.67,30.9-26.6,7.53-6.93,13.9-14.2,19.1-21.8,5.2-7.6,7.8-15,7.8-22.2,0-5.47-1.27-9.73-3.8-12.8-2.53-3.07-6.33-4.6-11.4-4.6s-9.03,1.9-11.9,5.7c-2.87,3.8-4.3,9.17-4.3,16.1h-33c.27-11.33,2.7-20.8,7.3-28.4,4.6-7.6,10.67-13.2,18.2-16.8,7.53-3.6,15.9-5.4,25.1-5.4,15.87,0,27.83,4.07,35.9,12.2,8.07,8.13,12.1,18.73,12.1,31.8,0,14.27-4.87,27.5-14.6,39.7-9.73,12.2-22.13,24.1-37.2,35.7h54v27.8h-100.4v-25.4c4.53-3.6,6.6-5.27,6.2-5Z" style="fill: #ccc;"/>
    <path d="m1116.99,11.6c8.8-7.73,20.73-11.6,35.8-11.6,10,0,18.57,1.73,25.7,5.2,7.13,3.47,12.53,8.2,16.2,14.2,3.67,6,5.5,12.73,5.5,20.2,0,8.8-2.2,15.97-6.6,21.5-4.4,5.53-9.53,9.3-15.4,11.3v.8c7.6,2.53,13.6,6.73,18,12.6,4.4,5.87,6.6,13.4,6.6,22.6,0,8.27-1.9,15.57-5.7,21.9-3.8,6.33-9.33,11.3-16.6,14.9-7.27,3.6-15.9,5.4-25.9,5.4-16,0-28.77-3.93-38.3-11.8-9.53-7.87-14.57-19.73-15.1-35.6h33.2c.13,5.87,1.8,10.5,5,13.9,3.2,3.4,7.87,5.1,14,5.1,5.2,0,9.23-1.5,12.1-4.5,2.87-3,4.3-6.97,4.3-11.9,0-6.4-2.03-11.03-6.1-13.9-4.07-2.87-10.57-4.3-19.5-4.3h-6.4v-27.8h6.4c6.8,0,12.3-1.17,16.5-3.5,4.2-2.33,6.3-6.5,6.3-12.5,0-4.8-1.33-8.53-4-11.2-2.67-2.67-6.33-4-11-4-5.07,0-8.83,1.53-11.3,4.6-2.47,3.07-3.9,6.87-4.3,11.4h-33.4c.53-14.27,5.2-25.27,14-33Z" style="fill: #ccc;"/>
  </g>
</svg>